  0
SECTION
  2
HEADER
  9
$ACADVER
  1
AC1014
  9
$ACADMAINTVER
 70
     9
  9
$DWGCODEPAGE
  3
DOS932
  9
$INSBASE
 10
0.0
 20
0.0
 30
0.0
  9
$EXTMIN
 10
-360.3996815447
 20
-336.6963804492
 30
0.0
  9
$EXTMAX
 10
360.3996815446
 20
0.0
 30
0.0
  9
$LIMMIN
 10
0.0
 20
0.0
  9
$LIMMAX
 10
420.0
 20
297.0
  9
$ORTHOMODE
 70
     0
  9
$REGENMODE
 70
     1
  9
$FILLMODE
 70
     1
  9
$QTEXTMODE
 70
     0
  9
$MIRRTEXT
 70
     1
  9
$DRAGMODE
 70
     2
  9
$LTSCALE
 40
1.0
  9
$OSMODE
 70
    37
  9
$ATTMODE
 70
     1
  9
$TEXTSIZE
 40
3.5
  9
$TRACEWID
 40
1.0
  9
$TEXTSTYLE
  7
STANDARD
  9
$CLAYER
  8
0
  9
$CELTYPE
  6
BYLAYER
  9
$CECOLOR
 62
   256
  9
$CELTSCALE
 40
1.0
  9
$DELOBJ
 70
     1
  9
$DISPSILH
 70
     0
  9
$DIMSCALE
 40
1.0
  9
$DIMASZ
 40
3.302
  9
$DIMEXO
 40
0.0
  9
$DIMDLI
 40
3.75
  9
$DIMRND
 40
0.0
  9
$DIMDLE
 40
0.0
  9
$DIMEXE
 40
1.0
  9
$DIMTP
 40
0.0
  9
$DIMTM
 40
0.0
  9
$DIMTXT
 40
3.5
  9
$DIMCEN
 40
2.5
  9
$DIMTSZ
 40
0.0
  9
$DIMTOL
 70
     0
  9
$DIMLIM
 70
     0
  9
$DIMTIH
 70
     1
  9
$DIMTOH
 70
     1
  9
$DIMSE1
 70
     0
  9
$DIMSE2
 70
     0
  9
$DIMTAD
 70
     1
  9
$DIMZIN
 70
     1
  9
$DIMBLK
  1

  9
$DIMASO
 70
     1
  9
$DIMSHO
 70
     1
  9
$DIMPOST
  1

  9
$DIMAPOST
  1

  9
$DIMALT
 70
     0
  9
$DIMALTD
 70
     3
  9
$DIMALTF
 40
0.0393700787
  9
$DIMLFAC
 40
1.0
  9
$DIMTOFL
 70
     1
  9
$DIMTVP
 40
0.0
  9
$DIMTIX
 70
     0
  9
$DIMSOXD
 70
     0
  9
$DIMSAH
 70
     0
  9
$DIMBLK1
  1

  9
$DIMBLK2
  1

  9
$DIMSTYLE
  2
ISO-25
  9
$DIMCLRD
 70
     0
  9
$DIMCLRE
 70
     0
  9
$DIMCLRT
 70
     0
  9
$DIMTFAC
 40
1.0
  9
$DIMGAP
 40
1.524
  9
$DIMJUST
 70
     0
  9
$DIMSD1
 70
     0
  9
$DIMSD2
 70
     0
  9
$DIMTOLJ
 70
     0
  9
$DIMTZIN
 70
     1
  9
$DIMALTZ
 70
     0
  9
$DIMALTTZ
 70
     0
  9
$DIMFIT
 70
     3
  9
$DIMUPT
 70
     0
  9
$DIMUNIT
 70
     2
  9
$DIMDEC
 70
     2
  9
$DIMTDEC
 70
     2
  9
$DIMALTU
 70
     2
  9
$DIMALTTD
 70
     3
  9
$DIMTXSTY
  7
STANDARD
  9
$DIMAUNIT
 70
     0
  9
$LUNITS
 70
     2
  9
$LUPREC
 70
     2
  9
$SKETCHINC
 40
1.0
  9
$FILLETRAD
 40
0.0
  9
$AUNITS
 70
     0
  9
$AUPREC
 70
     2
  9
$MENU
  1
.
  9
$ELEVATION
 40
0.0
  9
$PELEVATION
 40
0.0
  9
$THICKNESS
 40
0.0
  9
$LIMCHECK
 70
     0
  9
$CHAMFERA
 40
0.0
  9
$CHAMFERB
 40
0.0
  9
$CHAMFERC
 40
0.0
  9
$CHAMFERD
 40
0.0
  9
$SKPOLY
 70
     0
  9
$TDCREATE
 40
2460255.008033819
  9
$TDUPDATE
 40
2460255.008132176
  9
$TDINDWG
 40
0.0000000116
  9
$TDUSRTIMER
 40
0.0000000116
  9
$USRTIMER
 70
     1
  9
$ANGBASE
 50
0.0
  9
$ANGDIR
 70
     0
  9
$PDMODE
 70
     0
  9
$PDSIZE
 40
-1.0
  9
$PLINEWID
 40
0.0
  9
$COORDS
 70
     1
  9
$SPLFRAME
 70
     0
  9
$SPLINETYPE
 70
     6
  9
$SPLINESEGS
 70
     8
  9
$ATTDIA
 70
     0
  9
$ATTREQ
 70
     1
  9
$HANDLING
 70
     1
  9
$HANDSEED
  5
81
  9
$SURFTAB1
 70
     6
  9
$SURFTAB2
 70
     6
  9
$SURFTYPE
 70
     6
  9
$SURFU
 70
     6
  9
$SURFV
 70
     6
  9
$UCSNAME
  2

  9
$UCSORG
 10
0.0
 20
0.0
 30
0.0
  9
$UCSXDIR
 10
1.0
 20
0.0
 30
0.0
  9
$UCSYDIR
 10
0.0
 20
1.0
 30
0.0
  9
$PUCSNAME
  2

  9
$PUCSORG
 10
0.0
 20
0.0
 30
0.0
  9
$PUCSXDIR
 10
1.0
 20
0.0
 30
0.0
  9
$PUCSYDIR
 10
0.0
 20
1.0
 30
0.0
  9
$USERI1
 70
     0
  9
$USERI2
 70
     0
  9
$USERI3
 70
     0
  9
$USERI4
 70
     0
  9
$USERI5
 70
     0
  9
$USERR1
 40
0.0
  9
$USERR2
 40
0.0
  9
$USERR3
 40
0.0
  9
$USERR4
 40
0.0
  9
$USERR5
 40
0.0
  9
$WORLDVIEW
 70
     1
  9
$SHADEDGE
 70
     3
  9
$SHADEDIF
 70
    70
  9
$TILEMODE
 70
     1
  9
$MAXACTVP
 70
    64
  9
$PINSBASE
 10
0.0
 20
0.0
 30
0.0
  9
$PLIMCHECK
 70
     0
  9
$PEXTMIN
 10
1.0000000000E+20
 20
1.0000000000E+20
 30
1.0000000000E+20
  9
$PEXTMAX
 10
-1.0000000000E+20
 20
-1.0000000000E+20
 30
-1.0000000000E+20
  9
$PLIMMIN
 10
0.0
 20
0.0
  9
$PLIMMAX
 10
420.0
 20
297.0
  9
$UNITMODE
 70
     0
  9
$VISRETAIN
 70
     1
  9
$PLINEGEN
 70
     0
  9
$PSLTSCALE
 70
     1
  9
$TREEDEPTH
 70
  3020
  9
$PICKSTYLE
 70
     1
  9
$CMLSTYLE
  2
STANDARD
  9
$CMLJUST
 70
     0
  9
$CMLSCALE
 40
20.0
  9
$PROXYGRAPHICS
 70
     1
  9
$MEASUREMENT
 70
     1
  0
ENDSEC
  0
SECTION
  2
CLASSES
  0
CLASS
  1
ACDBDICTIONARYWDFLT
  2
AcDbDictionaryWithDefault
  3
ObjectDBX Classes
 90
        0
280
     0
281
     0
  0
CLASS
  1
VISUALSTYLE
  2
AcDbVisualStyle
  3
ObjectDBX Classes
 90
     4095
280
     0
281
     0
  0
CLASS
  1
MATERIAL
  2
AcDbMaterial
  3
ObjectDBX Classes
 90
     1153
280
     0
281
     0
  0
CLASS
  1
SCALE
  2
AcDbScale
  3
ObjectDBX Classes
 90
     1153
280
     0
281
     0
  0
CLASS
  1
TABLESTYLE
  2
AcDbTableStyle
  3
ObjectDBX Classes
 90
     4095
280
     0
281
     0
  0
CLASS
  1
MLEADERSTYLE
  2
AcDbMLeaderStyle
  3
ACDB_MLEADERSTYLE_CLASS
 90
     4095
280
     0
281
     0
  0
CLASS
  1
SUN
  2
AcDbSun
  3
SCENEOE
 90
     1153
280
     0
281
     0
  0
CLASS
  1
XRECORD
  2
AcDbXrecord
  3
ObjectDBX Classes
 90
        0
280
     0
281
     0
  0
CLASS
  1
LWPOLYLINE
  2
AcDbPolyline
  3
ObjectDBX Classes
 90
        0
280
     0
281
     1
  0
CLASS
  1
HATCH
  2
AcDbHatch
  3
ObjectDBX Classes
 90
        0
280
     0
281
     1
  0
ENDSEC
  0
SECTION
  2
TABLES
  0
TABLE
  2
VPORT
  5
8
330
0
100
AcDbSymbolTable
 70
     1
  0
VPORT
  5
29
330
8
100
AcDbSymbolTableRecord
100
AcDbViewportTableRecord
  2
*ACTIVE
 70
     0
 10
0.0
 20
0.0
 11
1.0
 21
1.0
 12
0.0
 22
-168.3481902246
 13
0.0
 23
0.0
 14
10.0
 24
10.0
 15
10.0
 25
10.0
 16
0.0
 26
0.0
 36
1.0
 17
0.0
 27
0.0
 37
0.0
 40
343.4303080582
 41
2.1407992629
 42
50.0
 43
0.0
 44
0.0
 50
0.0
 51
0.0
 71
     0
 72
   100
 73
     1
 74
     3
 75
     0
 76
     0
 77
     0
 78
     0
  0
ENDTAB
  0
TABLE
  2
LTYPE
  5
5
330
0
100
AcDbSymbolTable
 70
     6
  0
LTYPE
  5
14
330
5
100
AcDbSymbolTableRecord
100
AcDbLinetypeTableRecord
  2
BYBLOCK
 70
     0
  3

 72
    65
 73
     0
 40
0.0
  0
LTYPE
  5
15
330
5
100
AcDbSymbolTableRecord
100
AcDbLinetypeTableRecord
  2
BYLAYER
 70
     0
  3

 72
    65
 73
     0
 40
0.0
  0
LTYPE
  5
16
330
5
100
AcDbSymbolTableRecord
100
AcDbLinetypeTableRecord
  2
CONTINUOUS
 70
     0
  3
Solid line
 72
    65
 73
     0
 40
0.0
  0
LTYPE
  5
5E
330
5
100
AcDbSymbolTableRecord
100
AcDbLinetypeTableRecord
  2
HIDDEN
 70
     0
  3
Hidden __ __ __ __ __ __ __ __ __ __ __ __ __ __
 72
    65
 73
     2
 40
1.905
 49
1.27
 74
     0
 49
-0.635
 74
     0
  0
LTYPE
  5
5F
330
5
100
AcDbSymbolTableRecord
100
AcDbLinetypeTableRecord
  2
PHANTOM
 70
     0
  3
Phantom ______  __  __  ______  __  __  ______
 72
    65
 73
     6
 40
12.7
 49
6.35
 74
     0
 49
-1.27
 74
     0
 49
1.27
 74
     0
 49
-1.27
 74
     0
 49
1.27
 74
     0
 49
-1.27
 74
     0
  0
LTYPE
  5
60
330
5
100
AcDbSymbolTableRecord
100
AcDbLinetypeTableRecord
  2
CENTER
 70
     0
  3
Center ____ _ ____ _ ____ _ ____ _ ____ _ ____
 72
    65
 73
     4
 40
10.16
 49
6.35
 74
     0
 49
-1.27
 74
     0
 49
1.27
 74
     0
 49
-1.27
 74
     0
  0
LTYPE
  5
61
330
5
100
AcDbSymbolTableRecord
100
AcDbLinetypeTableRecord
  2
CENTERX2
 70
     0
  3
Center (2x) ________  __  ________  __  _____
 72
    65
 73
     4
 40
20.32
 49
12.7
 74
     0
 49
-2.54
 74
     0
 49
2.54
 74
     0
 49
-2.54
 74
     0
  0
LTYPE
  5
62
330
5
100
AcDbSymbolTableRecord
100
AcDbLinetypeTableRecord
  2
DOT2
 70
     0
  3
Dot (.5x) ........................................
 72
    65
 73
     2
 40
0.635
 49
0.0
 74
     0
 49
-0.635
 74
     0
  0
ENDTAB
  0
TABLE
  2
LAYER
  5
2
330
0
100
AcDbSymbolTable
 70
     1
  0
LAYER
  5
10
330
2
100
AcDbSymbolTableRecord
100
AcDbLayerTableRecord
  2
0
 70
     0
 62
     7
  6
CONTINUOUS
  0
ENDTAB
  0
TABLE
  2
STYLE
  5
3
330
0
100
AcDbSymbolTable
 70
     2
  0
STYLE
  5
11
330
3
100
AcDbSymbolTableRecord
100
AcDbTextStyleTableRecord
  2
STANDARD
 70
     0
 40
0.0
 41
1.0
 50
0.0
 71
     0
 42
3.5
  3
GOTHIC.TTF
  4

1001
ACAD
1000
CENTURY GOTHIC
1071
       34
  0
STYLE
  5
7E
330
3
100
AcDbSymbolTableRecord
100
AcDbTextStyleTableRecord
  2
SLDTEXTSTYLE0
 70
     0
 40
0.0
 41
1.0
 50
0.0
 71
     0
 42
3.5
  3
Arail.ttf
  4
bigfont
1001
ACAD
1000
Arail.ttf
1071
 33554688
  0
ENDTAB
  0
TABLE
  2
VIEW
  5
6
330
0
100
AcDbSymbolTable
 70
     0
  0
ENDTAB
  0
TABLE
  2
UCS
  5
7
330
0
100
AcDbSymbolTable
 70
     0
  0
ENDTAB
  0
TABLE
  2
APPID
  5
9
330
0
100
AcDbSymbolTable
 70
     1
  0
APPID
  5
12
330
9
100
AcDbSymbolTableRecord
100
AcDbRegAppTableRecord
  2
ACAD
 70
     0
  0
ENDTAB
  0
TABLE
  2
DIMSTYLE
  5
A
330
0
100
AcDbSymbolTable
 70
     1
  0
DIMSTYLE
105
27
330
A
100
AcDbSymbolTableRecord
100
AcDbDimStyleTableRecord
  2
ISO-25
 70
     0
  3

  4

  5

  6

  7

 40
1.0
 41
2.5
 42
0.625
 43
3.75
 44
1.25
 45
0.0
 46
0.0
 47
0.0
 48
0.0
140
2.5
141
2.5
142
0.0
143
0.0393700787
144
1.0
145
0.0
146
1.0
147
0.625
 71
     0
 72
     0
 73
     0
 74
     0
 75
     0
 76
     0
 77
     1
 78
     8
170
     0
171
     3
172
     1
173
     0
174
     0
175
     0
176
     0
177
     0
178
     0
270
     2
271
     2
272
     2
273
     2
274
     3
340
11
275
     0
280
     0
281
     0
282
     0
283
     0
284
     8
285
     0
286
     0
287
     3
288
     0
  0
ENDTAB
  0
TABLE
  2
BLOCK_RECORD
  5
1
330
0
100
AcDbSymbolTable
 70
     1
  0
BLOCK_RECORD
  5
1F
330
1
100
AcDbSymbolTableRecord
100
AcDbBlockTableRecord
  2
*MODEL_SPACE
  0
BLOCK_RECORD
  5
1B
330
1
100
AcDbSymbolTableRecord
100
AcDbBlockTableRecord
  2
*PAPER_SPACE
  0
BLOCK_RECORD
  5
23
330
1
100
AcDbSymbolTableRecord
100
AcDbBlockTableRecord
  2
*PAPER_SPACE0
  0
ENDTAB
  0
ENDSEC
  0
SECTION
  2
BLOCKS
  0
BLOCK
  5
20
330
1F
100
AcDbEntity
  8
0
100
AcDbBlockBegin
  2
*MODEL_SPACE
 70
     0
 10
0.0
 20
0.0
 30
0.0
  3
*MODEL_SPACE
  1

  0
ENDBLK
  5
21
330
1F
100
AcDbEntity
  8
0
100
AcDbBlockEnd
  0
BLOCK
  5
1C
330
1B
100
AcDbEntity
 67
     1
  8
0
100
AcDbBlockBegin
  2
*PAPER_SPACE
 70
     0
 10
0.0
 20
0.0
 30
0.0
  3
*PAPER_SPACE
  1

  0
ENDBLK
  5
1D
330
1B
100
AcDbEntity
 67
     1
  8
0
100
AcDbBlockEnd
  0
BLOCK
  5
24
330
23
100
AcDbEntity
  8
0
100
AcDbBlockBegin
  2
*PAPER_SPACE0
 70
     0
 10
0.0
 20
0.0
 30
0.0
  3
*PAPER_SPACE0
  1

  0
ENDBLK
  5
25
330
23
100
AcDbEntity
  8
0
100
AcDbBlockEnd
  0
ENDSEC
  0
SECTION
  2
ENTITIES
  0
LINE
  5
63
330
1F
100
AcDbEntity
  8
0
  6
CONTINUOUS
 62
     7
100
AcDbLine
 10
-196.0920903528
 20
0.0
 30
0.0
 11
196.0920903528
 21
0.0
 31
0.0
  0
LINE
  5
64
330
1F
100
AcDbEntity
  8
0
  6
CONTINUOUS
 62
     7
100
AcDbLine
 10
244.8268534509
 20
-61.1430185825
 30
0.0
 11
238.6166567349
 21
-85.2754614762
 31
0.0
  0
LINE
  5
65
330
1F
100
AcDbEntity
  8
0
  6
CONTINUOUS
 62
     7
100
AcDbLine
 10
238.6166567349
 20
-85.2754614762
 30
0.0
 11
272.1338258473
 21
-100.5674514972
 31
0.0
  0
LINE
  5
66
330
1F
100
AcDbEntity
  8
0
  6
CONTINUOUS
 62
     7
100
AcDbLine
 10
272.1338258473
 20
-100.5674514972
 30
0.0
 11
264.2614452133
 21
-124.1872908431
 31
0.0
  0
LINE
  5
67
330
1F
100
AcDbEntity
  8
0
  6
CONTINUOUS
 62
     7
100
AcDbLine
 10
264.2614452133
 20
-124.1872908431
 30
0.0
 11
290.7363623835
 21
-130.8052642605
 31
0.0
  0
LINE
  5
68
330
1F
100
AcDbEntity
  8
0
  6
CONTINUOUS
 62
     7
100
AcDbLine
 10
290.7363623835
 20
-130.8052642605
 30
0.0
 11
278.7879349769
 21
-148.9862186624
 31
0.0
  0
SPLINE
  5
69
330
1F
100
AcDbEntity
  8
0
  6
CONTINUOUS
 62
     7
100
AcDbSpline
210
0.0
220
0.0
230
1.0
 70
     8
 71
     3
 72
    10
 73
     6
 74
     0
 42
0.00000001
 43
0.00000001
 40
0.0
 40
0.0
 40
0.0
 40
0.0
 40
0.2797914340663507
 40
0.559757340293599
 40
1.0
 40
1.0
 40
1.0
 40
1.0
 10
-355.1981449127197
 20
-277.1889401249958
 30
0.0
 10
-357.599643326426
 20
-293.6009683625697
 30
0.0
 10
-359.1103241830209
 20
-310.1027827553614
 30
0.0
 10
-360.3996815445979
 20
-336.1091292762154
 30
0.0
 10
-360.0486310428182
 20
-327.4375436827838
 30
0.0
 10
-360.3996815445979
 20
-336.1091292762154
 30
0.0
  0
SPLINE
  5
6A
330
1F
100
AcDbEntity
  8
0
  6
CONTINUOUS
 62
     7
100
AcDbSpline
210
0.0
220
0.0
230
1.0
 70
     8
 71
     3
 72
    27
 73
    23
 74
     0
 42
0.00000001
 43
0.00000001
 40
0.0
 40
0.0
 40
0.0
 40
0.0
 40
0.053022172526098
 40
0.1010277865989189
 40
0.1395756119924737
 40
0.1800960988477078
 40
0.2208179079650753
 40
0.2394989398832851
 40
0.2560073717268787
 40
0.2770336660860161
 40
0.3014995313160687
 40
0.3218017068167225
 40
0.3384719802156761
 40
0.3518935912345593
 40
0.3939276070089526
 40
0.4349112467440662
 40
0.4800251882931239
 40
0.5279474822897579
 40
0.574837701571443
 40
0.7149071917119849
 40
0.8550015631397574
 40
1.0
 40
1.0
 40
1.0
 40
1.0
 10
-355.1981449127197
 20
-277.1889401249957
 30
0.0
 10
-351.1635685002282
 20
-261.0427355052783
 30
0.0
 10
-346.346454380043
 20
-246.6793539090292
 30
0.0
 10
-341.7289155579094
 20
-235.3544267808985
 30
0.0
 10
-336.4401745844851
 20
-223.5897248328229
 30
0.0
 10
-330.9186104538942
 20
-211.8377772795936
 30
0.0
 10
-328.370392280823
 20
-206.4519795188066
 30
0.0
 10
-326.1474579661008
 20
-201.6823610513554
 30
0.0
 10
-323.3443523692813
 20
-195.5976481094182
 30
0.0
 10
-320.1029944583443
 20
-188.5105861709367
 30
0.0
 10
-317.4099010720997
 20
-182.6307800631485
 30
0.0
 10
-315.1862794769764
 20
-177.8070652702912
 30
0.0
 10
-313.3802727481325
 20
-173.9288466075015
 30
0.0
 10
-307.561141831203
 20
-161.8408851445438
 30
0.0
 10
-301.5591962614685
 20
-150.1775576558931
 30
0.0
 10
-294.5763194142813
 20
-137.4889571639206
 30
0.0
 10
-286.81940026452
 20
-124.1545301770106
 30
0.0
 10
-278.9316102981086
 20
-111.240493107721
 30
0.0
 10
-253.714123399233
 20
-73.4569922670938
 30
0.0
 10
-226.3291890475697
 20
-36.8133040938101
 30
0.0
 10
-196.0920903527852
 20
0.0000000000000402
 30
0.0
 10
-206.3018537541342
 20
-12.19256236442084
 30
0.0
 10
-196.0920903527852
 20
0.0000000000000402
 30
0.0
  0
SPLINE
  5
6B
330
1F
100
AcDbEntity
  8
0
  6
CONTINUOUS
 62
     7
100
AcDbSpline
210
0.0
220
0.0
230
1.0
 70
     8
 71
     3
 72
    24
 73
    20
 74
     0
 42
0.00000001
 43
0.00000001
 40
0.0
 40
0.0
 40
0.0
 40
0.0
 40
0.0909736558380131
 40
0.1790759191315601
 40
0.2684791371967132
 40
0.3560583292563461
 40
0.4108099722148917
 40
0.4650167241484318
 40
0.5189984167552395
 40
0.5684303950661537
 40
0.6128282739906884
 40
0.6628537962184439
 40
0.7175651471906235
 40
0.7509406984458633
 40
0.7988532207411435
 40
0.8542362332890785
 40
0.9030079680738222
 40
0.9519697468469689
 40
1.0
 40
1.0
 40
1.0
 40
1.0
 10
196.0920095443726
 20
-0.0000000000000246
 30
0.0
 10
215.273891203071
 20
-22.96705111884578
 30
0.0
 10
233.1729633804738
 20
-45.62193250951445
 30
0.0
 10
250.571566203125
 20
-69.05077742472105
 30
0.0
 10
266.7873602483382
 20
-92.44717264002739
 30
0.0
 10
276.4596812985533
 20
-107.3082556819332
 30
0.0
 10
285.6541246836507
 20
-122.2028917294008
 30
0.0
 10
294.415140980325
 20
-137.2136617523171
 30
0.0
 10
302.0569253456978
 20
-151.1210807370418
 30
0.0
 10
308.5155853649388
 20
-163.7730843591148
 30
0.0
 10
315.3648714330054
 20
-178.1869737139515
 30
0.0
 10
322.6238075134106
 20
-194.0321577200803
 30
0.0
 10
327.0780204358643
 20
-203.6892116426426
 30
0.0
 10
333.5944013121378
 20
-217.5097598297556
 30
0.0
 10
340.9476422260102
 20
-233.5476823381364
 30
0.0
 10
346.7928794561937
 20
-247.8757815404068
 30
0.0
 10
351.600688723674
 20
-262.5518287482702
 30
0.0
 10
355.1981847938308
 20
-277.1889401249957
 30
0.0
 10
354.0768278036434
 20
-272.2943226015131
 30
0.0
 10
355.1981847938308
 20
-277.1889401249957
 30
0.0
  0
SPLINE
  5
6C
330
1F
100
AcDbEntity
  8
0
  6
CONTINUOUS
 62
     7
100
AcDbSpline
210
0.0
220
0.0
230
1.0
 70
     8
 71
     3
 72
    10
 73
     6
 74
     0
 42
0.00000001
 43
0.00000001
 40
0.0
 40
0.0
 40
0.0
 40
0.0
 40
0.5602232892423039
 40
0.7801650664995021
 40
1.0
 40
1.0
 40
1.0
 40
1.0
 10
360.3994846343994
 20
-336.1091292766897
 30
0.0
 10
358.5558006367165
 20
-303.0234069020951
 30
0.0
 10
357.1693976547028
 20
-290.0744921498887
 30
0.0
 10
355.198184793831
 20
-277.1889401249957
 30
0.0
 10
355.8977548521589
 20
-281.4796874197801
 30
0.0
 10
355.198184793831
 20
-277.1889401249957
 30
0.0
  0
SPLINE
  5
6D
330
1F
100
AcDbEntity
  8
0
  6
CONTINUOUS
 62
     7
100
AcDbSpline
210
0.0
220
0.0
230
1.0
 70
     8
 71
     3
 72
    10
 73
     6
 74
     0
 42
0.00000001
 43
0.00000001
 40
0.0
 40
0.0
 40
0.0
 40
0.0
 40
0.567393896129233
 40
0.7843999596626999
 40
1.0
 40
1.0
 40
1.0
 40
1.0
 10
-340.4109477996826
 20
-336.6963804491846
 30
0.0
 10
-338.6244142845627
 20
-304.4662675051805
 30
0.0
 10
-337.3148053112962
 20
-292.1775358369365
 30
0.0
 10
-335.4653163148287
 20
-280.0216064926814
 30
0.0
 10
-336.1215915952888
 20
-284.0694565423379
 30
0.0
 10
-335.4653163148288
 20
-280.0216064926814
 30
0.0
  0
SPLINE
  5
6E
330
1F
100
AcDbEntity
  8
0
  6
CONTINUOUS
 62
     7
100
AcDbSpline
210
0.0
220
0.0
230
1.0
 70
     8
 71
     3
 72
    24
 73
    20
 74
     0
 42
0.00000001
 43
0.00000001
 40
0.0
 40
0.0
 40
0.0
 40
0.0
 40
0.0561256068963194
 40
0.1034298454656177
 40
0.1478374648622184
 40
0.1928522845101682
 40
0.2341371106621734
 40
0.273374895778435
 40
0.3188591264455536
 40
0.3491066957124232
 40
0.3910681451279384
 40
0.4316475736631807
 40
0.476622508452383
 40
0.5246431560785301
 40
0.5716627906014117
 40
0.6769557297593841
 40
0.7832520315915619
 40
0.8893784686346207
 40
0.9999999999999999
 40
0.9999999999999999
 40
0.9999999999999999
 40
0.9999999999999999
 10
-335.4651927947998
 20
-280.0216064926815
 30
0.0
 10
-331.2083065896813
 20
-263.3992883283161
 30
0.0
 10
-326.4090289298565
 20
-249.6641929993292
 30
0.0
 10
-321.0598813416784
 20
-237.0142808017715
 30
0.0
 10
-315.2096381603054
 20
-224.3332667901199
 30
0.0
 10
-309.7333782219553
 20
-212.741809515004
 30
0.0
 10
-304.6200465601262
 20
-201.6930422025173
 30
0.0
 10
-298.749509498842
 20
-188.8657612413406
 30
0.0
 10
-294.804794284123
 20
-180.3495297349299
 30
0.0
 10
-289.14705524244
 20
-168.6009137099674
 30
0.0
 10
-283.3583789977787
 20
-157.357777627233
 30
0.0
 10
-276.5780833990628
 20
-145.0424411060759
 30
0.0
 10
-269.0081917350359
 20
-132.0334111649057
 30
0.0
 10
-261.3054892854565
 20
-119.425537916505
 30
0.0
 10
-243.0629823802098
 20
-91.66453444443596
 30
0.0
 10
-223.3876267309789
 20
-64.28821693205184
 30
0.0
 10
-202.6533350721319
 20
-37.56652687260736
 30
0.0
 10
-180.0308084974679
 20
-10.32116363948567
 30
0.0
 10
-187.6424762044732
 20
-19.35963636058954
 30
0.0
 10
-180.0308084974679
 20
-10.32116363948567
 30
0.0
  0
SPLINE
  5
6F
330
1F
100
AcDbEntity
  8
0
  6
CONTINUOUS
 62
     7
100
AcDbSpline
210
0.0
220
0.0
230
1.0
 70
     8
 71
     3
 72
    23
 73
    19
 74
     0
 42
0.00000001
 43
0.00000001
 40
0.0
 40
0.0
 40
0.0
 40
0.0
 40
0.0822737954356056
 40
0.1613119341092874
 40
0.2421808755095652
 40
0.3209970126090965
 40
0.3995086598389551
 40
0.476753163894587
 40
0.5518802555047996
 40
0.615464584226009
 40
0.6655217649825123
 40
0.7215477389710288
 40
0.756300368838687
 40
0.8054507219003917
 40
0.8608623909733962
 40
0.9079993223463447
 40
0.9544043562152367
 40
1.0
 40
1.0
 40
1.0
 40
1.0
 10
180.0307035446167
 20
-10.32116363948066
 30
0.0
 10
196.9506796470955
 20
-30.52262287507639
 30
0.0
 10
212.6862510811035
 20
-50.2477947133359
 30
0.0
 10
228.1968533817146
 20
-70.77317279367473
 30
0.0
 10
242.6882440949958
 20
-91.12173220414546
 30
0.0
 10
256.4385769861472
 20
-111.7458133480701
 30
0.0
 10
269.2256561183148
 20
-132.3944173603538
 30
0.0
 10
280.9014731364476
 20
-152.8166571365132
 30
0.0
 10
290.0390809861683
 20
-170.4056081024696
 30
0.0
 10
296.7147203915511
 20
-184.4458405930166
 30
0.0
 10
303.9524160790326
 20
-200.2421279154041
 30
0.0
 10
308.4663760428786
 20
-210.0320556418967
 30
0.0
 10
314.9733910579109
 20
-223.8348713653851
 30
0.0
 10
322.143816102344
 20
-239.4537999552189
 30
0.0
 10
327.6609926366428
 20
-252.9299472788565
 30
0.0
 10
332.116433752314
 20
-266.4668771277084
 30
0.0
 10
335.4589385260128
 20
-279.9911503089775
 30
0.0
 10
334.4169395329173
 20
-275.4685239513431
 30
0.0
 10
335.4589385260128
 20
-279.9911503089775
 30
0.0
  0
SPLINE
  5
70
330
1F
100
AcDbEntity
  8
0
  6
CONTINUOUS
 62
     7
100
AcDbSpline
210
0.0
220
0.0
230
1.0
 70
     8
 71
     3
 72
    10
 73
     6
 74
     0
 42
0.00000001
 43
0.00000001
 40
0.0
 40
0.0
 40
0.0
 40
0.0
 40
0.2752143945318287
 40
0.5527083818304706
 40
1.0
 40
1.0
 40
1.0
 40
1.0
 10
335.4587554931641
 20
-279.9911503089775
 30
0.0
 10
337.7217149164299
 20
-295.5276252978913
 30
0.0
 10
339.1548625853173
 20
-311.2680678107444
 30
0.0
 10
340.4111466470537
 20
-336.695520346199
 30
0.0
 10
340.0691477690739
 20
-328.2169988356932
 30
0.0
 10
340.4111466470537
 20
-336.695520346199
 30
0.0
  0
POINT
  5
71
330
1F
100
AcDbEntity
  8
0
  6
CONTINUOUS
 62
     7
100
AcDbPoint
 10
-29.4100326549
 20
-335.0
 30
0.0
  0
POINT
  5
72
330
1F
100
AcDbEntity
  8
0
  6
CONTINUOUS
 62
     7
100
AcDbPoint
 10
225.3184630627
 20
-335.0
 30
0.0
  0
SPLINE
  5
73
330
1F
100
AcDbEntity
  8
0
  6
CONTINUOUS
 62
     7
100
AcDbSpline
210
0.0
220
0.0
230
1.0
 70
     8
 71
     3
 72
    26
 73
    22
 74
     0
 42
0.00000001
 43
0.00000001
 40
0.0
 40
0.0
 40
0.0
 40
0.0
 40
0.0579664945397207
 40
0.1154039008393942
 40
0.1723224965539769
 40
0.2287319064518471
 40
0.2846412552503341
 40
0.3400592443946857
 40
0.3949942002666278
 40
0.4494541175107482
 40
0.5034466826757281
 40
0.5534877194293656
 40
0.6034200824577743
 40
0.6532522230579041
 40
0.7029926784073576
 40
0.7526500773195915
 40
0.8022331466430052
 40
0.8517507869619639
 40
0.9012119594166168
 40
0.9506254502189836
 40
1.0
 40
1.0
 40
1.0
 40
1.0
 10
360.3996815446264
 20
-334.5569360268153
 30
0.0
 10
360.3550486249544
 20
-333.4306132299145
 30
0.0
 10
360.266190171862
 20
-331.1882481291987
 30
0.0
 10
360.1294167784476
 20
-327.8469731304207
 30
0.0
 10
359.9864033483752
 20
-324.5409754186273
 30
0.0
 10
359.8339518356221
 20
-321.2700982354967
 30
0.0
 10
359.6691566966584
 20
-318.0336046337814
 30
0.0
 10
359.4893669006935
 20
-314.8309877739924
 30
0.0
 10
359.2921916673225
 20
-311.6617572415883
 30
0.0
 10
359.0754930026789
 20
-308.5255025548512
 30
0.0
 10
358.8424908941579
 20
-305.4887424901746
 30
0.0
 10
358.5928754387731
 20
-302.5442247650162
 30
0.0
 10
358.3265345928274
 20
-299.684626913308
 30
0.0
 10
358.0356980950744
 20
-296.8362585715502
 30
0.0
 10
357.7189189038921
 20
-293.9988094867507
 30
0.0
 10
357.3748580512822
 20
-291.1719813192196
 30
0.0
 10
357.002194738379
 20
-288.3555137980275
 30
0.0
 10
356.5999486867876
 20
-285.5491060565649
 30
0.0
 10
356.1661651882397
 20
-282.7527192058736
 30
0.0
 10
355.7029559400213
 20
-279.9654387209015
 30
0.0
 10
355.3661295868966
 20
-278.1142904542253
 30
0.0
 10
355.1977827967215
 20
-277.1890811707403
 30
0.0
  0
SPLINE
  5
74
330
1F
100
AcDbEntity
  8
0
  6
CONTINUOUS
 62
     7
100
AcDbSpline
210
0.0
220
0.0
230
1.0
 70
     8
 71
     3
 72
    60
 73
    56
 74
     0
 42
0.00000001
 43
0.00000001
 40
0.0
 40
0.0
 40
0.0
 40
0.0
 40
0.125000000000003
 40
0.125000000000003
 40
0.1875000000000046
 40
0.1875000000000046
 40
0.218750000000005
 40
0.218750000000005
 40
0.2500000000000054
 40
0.2812500000000058
 40
0.2812500000000058
 40
0.3125000000000062
 40
0.3125000000000062
 40
0.3437500000000067
 40
0.3437500000000067
 40
0.375000000000007
 40
0.375000000000007
 40
0.3906250000000072
 40
0.3906250000000072
 40
0.4062500000000073
 40
0.4062500000000073
 40
0.4218750000000074
 40
0.4218750000000074
 40
0.4375000000000075
 40
0.4375000000000075
 40
0.4687500000000073
 40
0.4687500000000073
 40
0.5000000000000071
 40
0.5000000000000071
 40
0.531250000000007
 40
0.531250000000007
 40
0.5625000000000069
 40
0.5625000000000069
 40
0.5781250000000069
 40
0.5781250000000069
 40
0.5937500000000069
 40
0.5937500000000069
 40
0.6250000000000066
 40
0.6250000000000066
 40
0.687500000000006
 40
0.687500000000006
 40
0.7031250000000058
 40
0.7031250000000058
 40
0.7187500000000057
 40
0.7187500000000057
 40
0.7500000000000048
 40
0.781250000000004
 40
0.781250000000004
 40
0.8125000000000032
 40
0.8125000000000032
 40
0.8750000000000022
 40
0.8750000000000022
 40
0.9375000000000011
 40
0.9375000000000011
 40
1.0
 40
1.0
 40
1.0
 40
1.0
 10
-0.0000000953548139
 20
-334.556936026863
 30
0.0
 10
-0.0000000951927538
 20
-321.9995504613235
 30
0.0
 10
-0.0000000949972466
 20
-309.3457820925921
 30
0.0
 10
-0.0000000943187135
 20
-289.8750270434708
 30
0.0
 10
-0.0000000940285966
 20
-283.3033857623548
 30
0.0
 10
-0.0000000934544107
 20
-273.2792878960893
 30
0.0
 10
-0.0000000932399088
 20
-269.9102154486528
 30
0.0
 10
-0.0000000927585047
 20
-263.1102815981998
 30
0.0
 10
-0.0000000922244055
 20
-256.2482457189514
 30
0.0
 10
-0.0000000915672323
 20
-249.2436185211231
 30
0.0
 10
-0.0000000908404346
 20
-242.1606526413407
 30
0.0
 10
-0.0000000904402412
 20
-238.5780927771935
 30
0.0
 10
-0.0000000895938584
 20
-231.3581126767421
 30
0.0
 10
-0.0000000891479993
 20
-227.7210103709843
 30
0.0
 10
-0.0000000882406312
 20
-220.4218882848883
 30
0.0
 10
-0.0000000877801768
 20
-216.7610461549108
 30
0.0
 10
-0.0000000870947489
 20
-211.2671868795672
 30
0.0
 10
-0.0000000868669509
 20
-209.4352469649473
 30
0.0
 10
-0.0000000864192524
 20
-205.77746331167
 30
0.0
 10
-0.0000000861998448
 20
-203.9523051005904
 30
0.0
 10
-0.0000000857675845
 20
-200.3045195681236
 30
0.0
 10
-0.0000000855546497
 20
-198.4817779921401
 30
0.0
 10
-0.0000000851323225
 20
-194.8329372668034
 30
0.0
 10
-0.0000000849228059
 20
-193.0063067750575
 30
0.0
 10
-0.0000000842965389
 20
-187.5182024328898
 30
0.0
 10
-0.0000000838824562
 20
-183.850204396631
 30
0.0
 10
-0.0000000830524833
 20
-176.5105557489948
 30
0.0
 10
-0.0000000826362315
 20
-172.8382539736296
 30
0.0
 10
-0.0000000817937232
 20
-165.4940653559819
 30
0.0
 10
-0.0000000813676835
 20
-161.8222409440773
 30
0.0
 10
-0.0000000804937536
 20
-154.4940794377522
 30
0.0
 10
-0.0000000800448636
 20
-150.8398431299417
 30
0.0
 10
-0.0000000793579294
 20
-145.3561053597541
 30
0.0
 10
-0.0000000791267501
 20
-143.527433814466
 30
0.0
 10
-0.0000000786606585
 20
-139.8674938296869
 30
0.0
 10
-0.0000000784257147
 20
-138.036590996025
 30
0.0
 10
-0.0000000777157838
 20
-132.544218371371
 30
0.0
 10
-0.0000000772357205
 20
-128.8836016587518
 30
0.0
 10
-0.0000000757796589
 20
-117.9229982069973
 30
0.0
 10
-0.0000000747875079
 20
-110.6407870553992
 30
0.0
 10
-0.0000000735361068
 20
-101.6306250277295
 30
0.0
 10
-0.0000000732854312
 20
-99.83395047044424
 30
0.0
 10
-0.0000000727815815
 20
-96.24349464214419
 30
0.0
 10
-0.0000000725281701
 20
-94.4486725682152
 30
0.0
 10
-0.0000000717643121
 20
-89.0696106800999
 30
0.0
 10
-0.0000000707360246
 20
-81.9112350630959
 30
0.0
 10
-0.0000000696916448
 20
-74.79963459865796
 30
0.0
 10
-0.0000000686409826
 20
-67.72110238630363
 30
0.0
 10
-0.0000000681124574
 20
-64.19809055933099
 30
0.0
 10
-0.0000000665213753
 20
-53.69989479433565
 30
0.0
 10
-0.0000000654548868
 20
-46.80408104251985
 30
0.0
 10
-0.0000000633003192
 20
-33.16374900166969
 30
0.0
 10
-0.0000000622129135
 20
-26.42288950916377
 30
0.0
 10
-0.0000000600169461
 20
-13.09482087888242
 30
0.0
 10
-0.0000000589084618
 20
-6.508049538595073
 30
0.0
 10
-0.0000000577897167
 20
0.0000000000000278
 30
0.0
  0
SPLINE
  5
75
330
1F
100
AcDbEntity
  8
0
  6
CONTINUOUS
 62
     7
100
AcDbSpline
210
0.0
220
0.0
230
1.0
 70
    24
 71
     3
 72
    92
 73
    88
 74
     0
 42
0.00000001
 43
0.00000001
 40
0.0
 40
0.0
 40
0.0
 40
0.0
 40
0.000117728361557
 40
0.0002380216593402
 40
0.0003628094211462
 40
0.0004938227453919
 40
0.0006325598867477
 40
0.0007802842763436
 40
0.0009380435670362
 40
0.0011066985104757
 40
0.0012869538397216
 40
0.0014793868803485
 40
0.0016844721410487
 40
0.0019026015769724
 40
0.0025871272836693
 40
0.003399452022365
 40
0.0043425560967759
 40
0.0054183334368175
 40
0.0075968826942167
 40
0.0103935166081905
 40
0.0123947147729176
 40
0.0162523792604986
 40
0.0197869524066549
 40
0.0230015649035195
 40
0.0258966209251655
 40
0.0284726750620063
 40
0.0340509100474986
 40
0.0397485385679046
 40
0.0422256342003588
 40
0.0450804144586944
 40
0.0477446365728364
 40
0.0504088586869779
 40
0.0532709759525741
 40
0.0560971773304376
 40
0.0588876864430419
 40
0.0616427356041098
 40
0.0675665067114982
 40
0.0740690525240662
 40
0.0798329970219233
 40
0.0874747480511757
 40
0.0959101210298493
 40
0.1012736127053252
 40
0.108202573932423
 40
0.1150231586256999
 40
0.1286529578065973
 40
0.135491174652862
 40
0.1423293914991262
 40
0.1476974070117028
 40
0.1532039094132998
 40
0.1588489492950803
 40
0.1646325736127177
 40
0.1705548260255081
 40
0.1822320183091152
 40
0.2000033222707146
 40
0.2154211389530778
 40
0.2299738545708592
 40
0.2400723793948204
 40
0.2501709042133595
 40
0.2602694290373314
 40
0.2706440906264578
 40
0.2820512023985854
 40
0.2944908057951096
 40
0.3079629327293343
 40
0.3224676082992664
 40
0.3556539600436768
 40
0.3862806693999317
 40
0.4188245039431791
 40
0.4513853851388105
 40
0.4961216419783988
 40
0.5398861539364558
 40
0.5861152967380592
 40
0.6317452469847981
 40
0.6767770220524634
 40
0.7212116804043166
 40
0.7434872787301374
 40
0.765623896926303
 40
0.7876216881725767
 40
0.8094808085672484
 40
0.8312014171983431
 40
0.8527836762168961
 40
0.8742277509123672
 40
0.8955338097902613
 40
0.9167020246520288
 40
0.9377325706773201
 40
0.9586256265086766
 40
0.9793813743387294
 40
1.0
 40
1.0
 40
1.0
 40
1.0
 10
0.0
 20
0.0
 30
0.0
 10
0.0231566019724469
 20
0.0
 30
0.0
 10
0.0699743165253934
 20
0.0
 30
0.0
 10
0.1400768840471394
 20
0.0
 30
0.0
 10
0.2103719191050575
 20
0.0
 30
0.0
 10
0.2808487523515167
 20
0.0
 30
0.0
 10
0.3515178815106175
 20
0.0
 30
0.0
 10
0.4223996069917099
 20
0.0
 30
0.0
 10
0.4935160585784749
 20
0.0
 30
0.0
 10
0.5648866363793669
 20
0.0
 30
0.0
 10
0.6365269768114221
 20
0.0
 30
0.0
 10
0.708447305951186
 20
0.0
 30
0.0
 10
0.7806602616976437
 20
0.0
 30
0.0
 10
0.9033131060673002
 20
0.0
 30
0.0
 10
1.073007784991514
 20
0.0
 30
0.0
 10
1.285495802933225
 20
0.0
 30
0.0
 10
1.506776960989771
 20
0.0
 30
0.0
 10
1.805754915859265
 20
0.0
 30
0.0
 10
2.190084718580567
 20
0.0
 30
0.0
 10
2.599118898936816
 20
0.0
 30
0.0
 10
3.079531479365372
 20
0.0
 30
0.0
 10
3.597017256321565
 20
0.0
 30
0.0
 10
4.18812051834761
 20
0.0
 30
0.0
 10
4.74613737576194
 20
0.0
 30
0.0
 10
5.267819718437093
 20
0.0
 30
0.0
 10
5.963805667712006
 20
0.0
 30
0.0
 10
6.913459005533419
 20
0.0
 30
0.0
 10
7.949873564294543
 20
0.0
 30
0.0
 10
8.830758843125436
 20
0.0
 30
0.0
 10
9.484535663684458
 20
0.0
 30
0.0
 10
10.16028003347756
 20
0.0
 30
0.0
 10
10.84163193802626
 20
0.0
 30
0.0
 10
11.53228316839373
 20
0.0
 30
0.0
 10
12.21781261303544
 20
0.0
 30
0.0
 10
12.88169849084962
 20
0.0
 30
0.0
 10
13.77215713360284
 20
0.0
 30
0.0
 10
14.9077255033756
 20
0.0
 30
0.0
 10
16.21162379943132
 20
0.0
 30
0.0
 10
17.58994703317203
 20
0.0
 30
0.0
 10
19.07589437719297
 20
0.0
 30
0.0
 10
20.52956671516785
 20
0.0
 30
0.0
 10
21.94396671501469
 20
0.0
 30
0.0
 10
23.27153805185329
 20
0.0
 30
0.0
 10
25.20482582908724
 20
0.0
 30
0.0
 10
27.1846906288438
 20
0.0
 30
0.0
 10
29.18241067126474
 20
0.0
 30
0.0
 10
30.58094869665935
 20
0.0
 30
0.0
 10
31.878547989457
 20
0.0
 30
0.0
 10
33.07738292863452
 20
0.0
 30
0.0
 10
34.29782274768858
 20
0.0
 30
0.0
 10
35.53901579148854
 20
0.0
 30
0.0
 10
37.20094561995653
 20
0.0
 30
0.0
 10
39.68502253938683
 20
0.0
 30
0.0
 10
42.81869543033607
 20
0.0
 30
0.0
 10
46.15371840806974
 20
0.0
 30
0.0
 10
48.96501626346748
 20
0.0
 30
0.0
 10
51.40756912239386
 20
0.0
 30
0.0
 10
53.53592393855418
 20
0.0
 30
0.0
 10
55.68606145312607
 20
0.0
 30
0.0
 10
57.92051131729858
 20
0.0
 30
0.0
 10
60.30391105631398
 20
0.0
 30
0.0
 10
62.89186987622794
 20
0.0
 30
0.0
 10
65.68369681645028
 20
0.0
 30
0.0
 10
69.89390932099292
 20
0.0
 30
0.0
 10
75.26549945055973
 20
0.0
 30
0.0
 10
81.84198189076743
 20
0.0
 30
0.0
 10
88.32751467994036
 20
0.0
 30
0.0
 10
95.7049002093595
 20
0.0
 30
0.0
 10
103.7600812188844
 20
0.0
 30
0.0
 10
112.6270973837061
 20
0.0
 30
0.0
 10
121.443226052484
 20
0.0
 30
0.0
 10
130.22315274122
 20
0.0
 30
0.0
 10
138.7678436072809
 20
0.0
 30
0.0
 10
145.7332671396269
 20
0.0
 30
0.0
 10
151.2080926599543
 20
0.0
 30
0.0
 10
155.2678640219493
 20
0.0
 30
0.0
 10
159.2695448550856
 20
0.0
 30
0.0
 10
163.213115240572
 20
0.0
 30
0.0
 10
167.0985801673685
 20
0.0
 30
0.0
 10
170.9259395396848
 20
0.0
 30
0.0
 10
174.6951889707291
 20
0.0
 30
0.0
 10
178.4063460626062
 20
0.0
 30
0.0
 10
182.0593455211362
 20
0.0
 30
0.0
 10
185.6544288551439
 20
0.0
 30
0.0
 10
189.1907036269757
 20
0.0
 30
0.0
 10
192.671467870777
 20
0.0
 30
0.0
 10
194.9544048810575
 20
0.0
 30
0.0
 10
196.0920903527928
 20
0.0
 30
0.0
  0
SPLINE
  5
76
330
1F
100
AcDbEntity
  8
0
  6
CONTINUOUS
 62
     7
100
AcDbSpline
210
0.0
220
0.0
230
1.0
 70
     8
 71
     3
 72
    60
 73
    56
 74
     0
 42
0.00000001
 43
0.00000001
 40
0.0
 40
0.0
 40
0.0
 40
0.0
 40
0.0105557529987755
 40
0.0210611124669401
 40
0.0315161582741445
 40
0.0419209714486954
 40
0.0522756341981559
 40
0.0625802299303522
 40
0.0728348432747999
 40
0.0830395601045522
 40
0.0931944675584841
 40
0.1032996540640168
 40
0.1133552093602925
 40
0.1233612245218094
 40
0.1333177919825227
 40
0.143225005560424
 40
0.1530829604826049
 40
0.1628917534108166
 40
0.2041716099055067
 40
0.2448902276571075
 40
0.2850551244131888
 40
0.3246741331299562
 40
0.3847047852385043
 40
0.4436763052932095
 40
0.4732637071862306
 40
0.5027251970949056
 40
0.5314383244304849
 40
0.558733422342961
 40
0.5869470534676393
 40
0.6150665616852719
 40
0.6418679513910399
 40
0.6734871289309402
 40
0.6865063388685818
 40
0.7048002946268908
 40
0.7189327834837524
 40
0.7270559935388616
 40
0.7467621419088035
 40
0.7683459656814132
 40
0.7789340330759917
 40
0.7895221001481242
 40
0.8001101675427024
 40
0.8105830927199478
 40
0.8210302120363434
 40
0.8314516814720311
 40
0.8526093574607088
 40
0.8719185702663566
 40
0.8893842286180834
 40
0.9176386964033302
 40
0.9455124415520447
 40
0.9544784092251227
 40
0.9634886955136085
 40
0.9725446645302223
 40
0.981647659850603
 40
0.990799004337589
 40
0.9999999999999999
 40
0.9999999999999999
 40
0.9999999999999999
 40
0.9999999999999999
 10
196.0920903527932
 20
-0.0000000000000278
 30
0.0
 10
196.8456612414517
 20
-0.8809417272098163
 30
0.0
 10
198.3492054452324
 20
-2.638619535295872
 30
0.0
 10
200.5885799455137
 20
-5.275584355180052
 30
0.0
 10
202.8094131618788
 20
-7.904881283586295
 30
0.0
 10
205.0109595490944
 20
-10.52698943412669
 30
0.0
 10
207.1934174439206
 20
-13.14178135609198
 30
0.0
 10
209.356734089157
 20
-15.74929095871816
 30
0.0
 10
211.5009235235086
 20
-18.34950922658896
 30
0.0
 10
213.6259820142741
 20
-20.94243856438277
 30
0.0
 10
215.7319105672455
 20
-23.52807833335121
 30
0.0
 10
217.8187088862161
 20
-26.1064287258595
 30
0.0
 10
219.8863771753233
 20
-28.67748963400493
 30
0.0
 10
221.9349149350379
 20
-31.24126132387184
 30
0.0
 10
223.9643239666979
 20
-33.79774287325068
 30
0.0
 10
225.9745976296495
 20
-36.34693771017034
 30
0.0
 10
227.9657605333398
 20
-38.88883316254513
 30
0.0
 10
232.0499846611494
 20
-44.13845534679657
 30
0.0
 10
238.1285982153287
 20
-52.08924647486241
 30
0.0
 10
246.0530083954674
 20
-62.76164699503475
 30
0.0
 10
253.7012868673043
 20
-73.38137529382765
 30
0.0
 10
262.3739144451434
 20
-85.8100794958413
 30
0.0
 10
271.9074026704587
 20
-100.0684098992836
 30
0.0
 10
280.4669040151695
 20
-113.6062210457358
 30
0.0
 10
287.032333563787
 20
-124.4658652022489
 30
0.0
 10
291.7964194574892
 20
-132.5940544648619
 30
0.0
 10
296.3228394578846
 20
-140.5589355321678
 30
0.0
 10
300.6642501529334
 20
-148.4574702307542
 30
0.0
 10
304.8254826173639
 20
-156.3608754998185
 30
0.0
 10
308.7952294310969
 20
-164.2819895925735
 30
0.0
 10
312.7663768697389
 20
-172.5864851505589
 30
0.0
 10
315.9662507578402
 20
-179.4695198093283
 30
0.0
 10
318.749755461098
 20
-185.5450290236331
 30
0.0
 10
320.7537001040803
 20
-189.934467260344
 30
0.0
 10
322.541098547571
 20
-193.851240845781
 30
0.0
 10
324.3918704281584
 20
-197.9040373739598
 30
0.0
 10
326.5945282673774
 20
-202.6685320893626
 30
0.0
 10
328.9387033703951
 20
-207.6596146068578
 30
0.0
 10
330.8811867742183
 20
-211.7698012915604
 30
0.0
 10
332.3234344633379
 20
-214.8233084910825
 30
0.0
 10
333.7635160784653
 20
-217.8646596629904
 30
0.0
 10
335.1909224181554
 20
-220.8946921018855
 30
0.0
 10
336.5951723070212
 20
-223.9141875736258
 30
0.0
 10
338.4621667241323
 20
-227.9686053726624
 30
0.0
 10
340.6790162383889
 20
-232.8931124907661
 30
0.0
 10
343.1076648791764
 20
-238.5307770161118
 30
0.0
 10
345.7085305895617
 20
-244.8985953506385
 30
0.0
 10
348.4016418536484
 20
-252.1797214788207
 30
0.0
 10
350.4916961060459
 20
-258.6957186061817
 30
0.0
 10
351.8237254325709
 20
-263.3160294979306
 30
0.0
 10
352.5703021440944
 20
-266.0482595617565
 30
0.0
 10
353.2819116865386
 20
-268.8020636335615
 30
0.0
 10
353.9577256264501
 20
-271.5775767035583
 30
0.0
 10
354.6011549524237
 20
-274.3742649601792
 30
0.0
 10
354.998816230306
 20
-276.2490243863182
 30
0.0
 10
355.1981847938308
 20
-277.1889401249951
 30
0.0
  0
SPLINE
  5
77
330
1F
100
AcDbEntity
  8
0
  6
CONTINUOUS
 62
     7
100
AcDbSpline
210
0.0
220
0.0
230
1.0
 70
    24
 71
     3
 72
    57
 73
    53
 74
     0
 42
0.00000001
 43
0.00000001
 40
0.0
 40
0.0
 40
0.0
 40
0.0
 40
0.015625000000001
 40
0.015625000000001
 40
0.031250000000002
 40
0.031250000000002
 40
0.0625000000000022
 40
0.0625000000000022
 40
0.0781250000000016
 40
0.0781250000000016
 40
0.093750000000001
 40
0.093750000000001
 40
0.1093750000000004
 40
0.1093750000000004
 40
0.1249999999999999
 40
0.1249999999999999
 40
0.1562499999999987
 40
0.1562499999999987
 40
0.1718749999999988
 40
0.1718749999999988
 40
0.1874999999999988
 40
0.2031249999999988
 40
0.2031249999999988
 40
0.2187499999999989
 40
0.2187499999999989
 40
0.2499999999999989
 40
0.2499999999999989
 40
0.281249999999999
 40
0.281249999999999
 40
0.3124999999999991
 40
0.3124999999999991
 40
0.3437499999999992
 40
0.3437499999999992
 40
0.3749999999999992
 40
0.3749999999999992
 40
0.4374999999999993
 40
0.4374999999999993
 40
0.4999999999999994
 40
0.4999999999999994
 40
0.5624999999999994
 40
0.5624999999999994
 40
0.6249999999999996
 40
0.6249999999999996
 40
0.6874999999999998
 40
0.6874999999999998
 40
0.7499999999999999
 40
0.7499999999999999
 40
0.8124999999999999
 40
0.8124999999999999
 40
0.8749999999999999
 40
0.8749999999999999
 40
1.0
 40
1.0
 40
1.0
 40
1.0
 10
0.0000000000000056
 20
-334.556936026815
 30
0.0
 10
0.4506362205403914
 20
-334.556936026815
 30
0.0
 10
0.9012875293673578
 20
-334.556936026815
 30
0.0
 10
1.813324612973364
 20
-334.556936026815
 30
0.0
 10
2.27480873983438
 20
-334.5569360268149
 30
0.0
 10
3.69023850055682
 20
-334.5569360268136
 30
0.0
 10
4.676618465352545
 20
-334.556936026815
 30
0.0
 10
6.264182287960248
 20
-334.556936026815
 30
0.0
 10
6.811161484235544
 20
-334.556936026815
 30
0.0
 10
7.943179368853345
 20
-334.5569360268141
 30
0.0
 10
8.52856619349505
 20
-334.556936026814
 30
0.0
 10
9.737086234096948
 20
-334.556936026814
 30
0.0
 10
10.36013558127229
 20
-334.5569360268141
 30
0.0
 10
11.6409626060394
 20
-334.556936026814
 30
0.0
 10
12.29856192797358
 20
-334.556936026814
 30
0.0
 10
14.31597124338363
 20
-334.5569360268141
 30
0.0
 10
15.72038861109382
 20
-334.5569360268141
 30
0.0
 10
17.87841803660687
 20
-334.5569360268141
 30
0.0
 10
18.60619869078284
 20
-334.556936026814
 30
0.0
 10
20.07324174329271
 20
-334.5569360268141
 30
0.0
 10
21.55228171327074
 20
-334.556936026814
 30
0.0
 10
23.04966602219938
 20
-334.556936026814
 30
0.0
 10
24.55339775261036
 20
-334.5569360268142
 30
0.0
 10
25.30815764252557
 20
-334.556936026814
 30
0.0
 10
27.58109264709856
 20
-334.5569360268141
 30
0.0
 10
29.10847747945424
 20
-334.556936026814
 30
0.0
 10
32.19504573633938
 20
-334.5569360268141
 30
0.0
 10
33.75423192132652
 20
-334.556936026814
 30
0.0
 10
36.91666004850519
 20
-334.5569360268149
 30
0.0
 10
38.52066800244901
 20
-334.556936026815
 30
0.0
 10
41.77884396261656
 20
-334.556936026815
 30
0.0
 10
43.433017046813
 20
-334.556936026815
 30
0.0
 10
46.79074116464766
 20
-334.5569360268151
 30
0.0
 10
48.49350658659192
 20
-334.5569360268149
 30
0.0
 10
53.66105676185892
 20
-334.5569360268149
 30
0.0
 10
57.18554267677914
 20
-334.556936026815
 30
0.0
 10
64.34249805651851
 20
-334.556936026815
 30
0.0
 10
67.97244884413207
 20
-334.556936026815
 30
0.0
 10
75.34022259495649
 20
-334.5569360268149
 30
0.0
 10
79.0784594862912
 20
-334.556936026815
 30
0.0
 10
86.67199793736096
 20
-334.556936026815
 30
0.0
 10
90.52674756318787
 20
-334.556936026815
 30
0.0
 10
98.34154181927863
 20
-334.5569360268149
 30
0.0
 10
102.3005620191344
 20
-334.556936026815
 30
0.0
 10
110.3012625801587
 20
-334.556936026815
 30
0.0
 10
114.3429619207819
 20
-334.5569360268151
 30
0.0
 10
122.4941695244886
 20
-334.556936026815
 30
0.0
 10
126.6041021342257
 20
-334.556936026815
 30
0.0
 10
134.88073141975
 20
-334.556936026815
 30
0.0
 10
139.0477936628356
 20
-334.5569360268151
 30
0.0
 10
151.6111340043922
 20
-334.5569360268149
 30
0.0
 10
160.070883224395
 20
-334.556936026815
 30
0.0
 10
168.52750520091
 20
-334.5569360268151
 30
0.0
  0
SPLINE
  5
78
330
1F
100
AcDbEntity
  8
0
  6
CONTINUOUS
 62
     7
100
AcDbSpline
210
0.0
220
0.0
230
1.0
 70
    24
 71
     3
 72
    20
 73
    16
 74
     0
 42
0.00000001
 43
0.00000001
 40
0.0
 40
0.0
 40
0.0
 40
0.0
 40
0.2500000000000001
 40
0.2500000000000001
 40
0.3750000000000002
 40
0.3750000000000002
 40
0.5000000000000003
 40
0.5000000000000003
 40
0.6250000000000006
 40
0.6250000000000006
 40
0.7500000000000006
 40
0.7500000000000006
 40
0.8750000000000002
 40
0.8750000000000002
 40
1.0
 40
1.0
 40
1.0
 40
1.0
 10
360.3996815446071
 20
-334.556936026719
 30
0.0
 10
352.8378033856533
 20
-334.5569360267171
 30
0.0
 10
343.5411512588979
 20
-334.556936026719
 30
0.0
 10
326.2508952486526
 20
-334.556936026719
 30
0.0
 10
319.9287549073672
 20
-334.556936026717
 30
0.0
 10
306.0666399472086
 20
-334.5569360267209
 30
0.0
 10
298.5265186688914
 20
-334.5569360267191
 30
0.0
 10
282.1931312356953
 20
-334.5569360267189
 30
0.0
 10
273.4007646609559
 20
-334.556936026719
 30
0.0
 10
254.666548641099
 20
-334.556936026719
 30
0.0
 10
244.7246504635023
 20
-334.5569360267191
 30
0.0
 10
223.9677674737903
 20
-334.5569360267193
 30
0.0
 10
213.1518644172648
 20
-334.556936026719
 30
0.0
 10
191.0663841127046
 20
-334.5569360267189
 30
0.0
 10
179.8000608201882
 20
-334.5569360267199
 30
0.0
 10
168.5275052007044
 20
-334.5569360267201
 30
0.0
  0
SPLINE
  5
79
330
1F
100
AcDbEntity
  8
0
  6
CONTINUOUS
 62
     7
100
AcDbSpline
210
0.0
220
0.0
230
1.0
 70
    24
 71
     3
 72
    92
 73
    88
 74
     0
 42
0.00000001
 43
0.00000001
 40
0.0
 40
0.0
 40
0.0
 40
0.0
 40
0.0111513453467523
 40
0.0223429044523272
 40
0.0335747072559238
 40
0.0448467833760717
 40
0.0561591621149659
 40
0.0675118724627284
 40
0.0789049431016056
 40
0.0903384024100979
 40
0.1018122784670226
 40
0.1133265990555185
 40
0.1248813916669794
 40
0.1364766835049336
 40
0.1481125014888583
 40
0.1597888722579354
 40
0.1715058221747501
 40
0.183263377328929
 40
0.1950615635407251
 40
0.2069004063645453
 40
0.2187799310924231
 40
0.2307001627574384
 40
0.2426611261370856
 40
0.2546628457565868
 40
0.2667053458921577
 40
0.2787886505742207
 40
0.3123188754470433
 40
0.3462412692106109
 40
0.3805562975941698
 40
0.4152644105213201
 40
0.4807774813506928
 40
0.5486151306657385
 40
0.5811750720178667
 40
0.6137199086400349
 40
0.6443454182490308
 40
0.6775330307411014
 40
0.7089019301587459
 40
0.7397312265451294
 40
0.7549325787358251
 40
0.770026830670226
 40
0.7845790541013917
 40
0.7999973916202859
 40
0.8121207904108969
 40
0.8197330907176221
 40
0.8294459298408142
 40
0.8432087167998428
 40
0.8576713033469573
 40
0.8645095256012866
 40
0.871347747855616
 40
0.8758100236188845
 40
0.880353294355531
 40
0.8849776235505717
 40
0.8987271075672836
 40
0.9040904025606357
 40
0.9125259854177609
 40
0.9201669932871892
 40
0.9259316937439663
 40
0.9324333390982925
 40
0.9383580225024101
 40
0.9436337090790968
 40
0.9495917122646645
 40
0.9522559348166878
 40
0.9549201573687125
 40
0.9566921385013439
 40
0.9584694083767206
 40
0.9602520820479169
 40
0.9640634944064777
 40
0.9678214602968789
 40
0.9715283223401516
 40
0.9775859033834228
 40
0.9803688045676975
 40
0.9837485749903548
 40
0.9876061180937306
 40
0.98960744322824
 40
0.9924031050261377
 40
0.9945826309026005
 40
0.9956576353183678
 40
0.9966004821347142
 40
0.9974130654398395
 40
0.9980983602814529
 40
0.9984641770136651
 40
0.9987924952662265
 40
0.9990857598387082
 40
0.9993474000211916
 40
0.9995822346477182
 40
0.9997968954491027
 40
1.0
 40
1.0
 40
1.0
 40
1.0
 10
-196.0920903527852
 20
0.0
 30
0.0
 10
-195.4776418349851
 20
0.0
 30
0.0
 10
-194.2465289874146
 20
0.0
 30
0.0
 10
-192.3833279382416
 20
0.0
 30
0.0
 10
-190.5038322431519
 20
0.0
 30
0.0
 10
-188.6070830640324
 20
0.0
 30
0.0
 10
-186.6933387046644
 20
0.0
 30
0.0
 10
-184.7625295792845
 20
0.0
 30
0.0
 10
-182.8146744319469
 20
0.0
 30
0.0
 10
-180.8497682120006
 20
0.0
 30
0.0
 10
-178.8678122786359
 20
0.0
 30
0.0
 10
-176.8688062643893
 20
0.0
 30
0.0
 10
-174.8527502669178
 20
0.0
 30
0.0
 10
-172.8196442585954
 20
0.0
 30
0.0
 10
-170.7694882455557
 20
0.0
 30
0.0
 10
-168.702282224828
 20
0.0
 30
0.0
 10
-166.618026195968
 20
0.0
 30
0.0
 10
-164.5167201576124
 20
0.0
 30
0.0
 10
-162.3983641095747
 20
0.0
 30
0.0
 10
-160.2629580479052
 20
0.0
 30
0.0
 10
-158.1105019826331
 20
0.0
 30
0.0
 10
-155.940995871424
 20
0.0
 30
0.0
 10
-153.7544398683904
 20
0.0
 30
0.0
 10
-151.5508333907721
 20
0.0
 30
0.0
 10
-149.3301786199381
 20
0.0
 30
0.0
 10
-145.7710677899459
 20
0.0
 30
0.0
 10
-140.8223111835185
 20
0.0
 30
0.0
 10
-134.4192757060582
 20
0.0
 30
0.0
 10
-127.8718549213498
 20
0.0
 30
0.0
 10
-119.2262958166875
 20
0.0
 30
0.0
 10
-108.2660832677801
 20
0.0
 30
0.0
 10
-97.25639243179839
 20
0.0
 30
0.0
 10
-88.32761253488488
 20
0.0
 30
0.0
 10
-81.84210885653006
 20
0.0
 30
0.0
 10
-75.26564185350388
 20
0.0
 30
0.0
 10
-68.73710174236211
 20
0.0
 30
0.0
 10
-62.16377303129622
 20
0.0
 30
0.0
 10
-56.76647957797575
 20
0.0
 30
0.0
 10
-52.47071913118562
 20
0.0
 30
0.0
 10
-49.31510165721514
 20
0.0
 30
0.0
 10
-46.15400125218684
 20
0.0
 30
0.0
 10
-43.2127783798413
 20
0.0
 30
0.0
 10
-40.75900825018647
 20
0.0
 30
0.0
 10
-38.69873935714502
 20
0.0
 30
0.0
 10
-36.50901116359892
 20
0.0
 30
0.0
 10
-33.79863333557461
 20
0.0
 30
0.0
 10
-31.2478613182939
 20
0.0
 30
0.0
 10
-29.18656627727481
 20
0.0
 30
0.0
 10
-27.8559611755491
 20
0.0
 30
0.0
 10
-26.69860882923555
 20
0.0
 30
0.0
 10
-25.71430700364285
 20
0.0
 30
0.0
 10
-24.07320991013106
 20
0.0
 30
0.0
 10
-22.40952872901701
 20
0.0
 30
0.0
 10
-20.52953977849551
 20
0.0
 30
0.0
 10
-19.07597796425683
 20
0.0
 30
0.0
 10
-17.58997329625546
 20
0.0
 30
0.0
 10
-16.21180111353571
 20
0.0
 30
0.0
 10
-14.90754355984236
 20
0.0
 30
0.0
 10
-13.58447168478672
 20
0.0
 30
0.0
 10
-12.23466974896984
 20
0.0
 30
0.0
 10
-11.09813143838925
 20
0.0
 30
0.0
 10
-10.16351135726194
 20
0.0
 30
0.0
 10
-9.57434968367551
 20
0.0
 30
0.0
 10
-9.06268147922847
 20
0.0
 30
0.0
 10
-8.632794630015333
 20
0.0
 30
0.0
 10
-8.047844843107539
 20
0.0
 30
0.0
 10
-7.332619509348936
 20
0.0
 30
0.0
 10
-6.521673995024262
 20
0.0
 30
0.0
 10
-5.612636005879334
 20
0.0
 30
0.0
 10
-4.845571921855817
 20
0.0
 30
0.0
 10
-4.145341658649405
 20
0.0
 30
0.0
 10
-3.588985968630005
 20
0.0
 30
0.0
 10
-3.079467123111252
 20
0.0
 30
0.0
 10
-2.599201145418366
 20
0.0
 30
0.0
 10
-2.190134592706391
 20
0.0
 30
0.0
 10
-1.805864989427706
 20
0.0
 30
0.0
 10
-1.506922773918554
 20
0.0
 30
0.0
 10
-1.285697408156145
 20
0.0
 30
0.0
 10
-1.073130825599414
 20
0.0
 30
0.0
 10
-0.8887748042303201
 20
0.0
 30
0.0
 10
-0.733424958192297
 20
0.0
 30
0.0
 10
-0.6103736130584831
 20
0.0
 30
0.0
 10
-0.4879838979083871
 20
0.0
 30
0.0
 10
-0.3660338630332627
 20
0.0
 30
0.0
 10
-0.2442163320469503
 20
0.0
 30
0.0
 10
-0.1222615135304378
 20
0.0
 30
0.0
 10
-0.0399952867267021
 20
0.0
 30
0.0
 10
0.0
 20
0.0
 30
0.0
  0
SPLINE
  5
7A
330
1F
100
AcDbEntity
  8
0
  6
CONTINUOUS
 62
     7
100
AcDbSpline
210
0.0
220
0.0
230
1.0
 70
     8
 71
     3
 72
    31
 73
    27
 74
     0
 42
0.00000001
 43
0.00000001
 40
0.0
 40
0.0
 40
0.0
 40
0.0
 40
0.0267390124563978
 40
0.0535037132385734
 40
0.0802953987547251
 40
0.1071156231433857
 40
0.1339659560838602
 40
0.1608479463372994
 40
0.1877629308337333
 40
0.2147121346660451
 40
0.2416967859628372
 40
0.2687181324980762
 40
0.2957774814305517
 40
0.3228761521211068
 40
0.3500154625074618
 40
0.3771967283182678
 40
0.4044212624128536
 40
0.4316903742559426
 40
0.4590053695365585
 40
0.4863675499405815
 40
0.5137782130864045
 40
0.607806640408922
 40
0.7034004839477931
 40
0.800600241557123
 40
0.8994502945583215
 40
1.0
 40
1.0
 40
1.0
 40
1.0
 10
-355.1976721867526
 20
-277.1891200399825
 30
0.0
 10
-355.2896981245311
 20
-277.6899738045953
 30
0.0
 10
-355.4738384099454
 20
-278.6921625069641
 30
0.0
 10
-355.7375621616104
 20
-280.1990071188908
 30
0.0
 10
-355.9924404795215
 20
-281.7093683873637
 30
0.0
 10
-356.2377508134
 20
-283.2234816630375
 30
0.0
 10
-356.4739219463639
 20
-284.741328554609
 30
0.0
 10
-356.7010946129467
 20
-286.2629582497306
 30
0.0
 10
-356.9194360326162
 20
-287.7884005450705
 30
0.0
 10
-357.1290758648326
 20
-289.3176871034695
 30
0.0
 10
-357.3301626250376
 20
-290.8508480041252
 30
0.0
 10
-357.5228505850399
 20
-292.3879170720493
 30
0.0
 10
-357.7073231999993
 20
-293.9289299777151
 30
0.0
 10
-357.8837721135947
 20
-295.4739259985355
 30
0.0
 10
-358.052398191126
 20
-297.0229467936618
 30
0.0
 10
-358.213411328111
 20
-298.5760362429544
 30
0.0
 10
-358.3670306415223
 20
-300.1332404055689
 30
0.0
 10
-358.5134846068773
 20
-301.6946077744861
 30
0.0
 10
-358.6530110630691
 20
-303.2601884673172
 30
0.0
 10
-358.7858578066446
 20
-304.8300373861337
 30
0.0
 10
-359.0146207253266
 20
-307.6784919916487
 30
0.0
 10
-359.3110709072195
 20
-311.8420779602611
 30
0.0
 10
-359.6386818428834
 20
-317.3614869021339
 30
0.0
 10
-359.9198943525781
 20
-322.9906194209956
 30
0.0
 10
-360.1686179351192
 20
-328.73076942121
 30
0.0
 10
-360.3222239037482
 20
-332.6038759064489
 30
0.0
 10
-360.399681544722
 20
-334.556936026863
 30
0.0
  0
SPLINE
  5
7B
330
1F
100
AcDbEntity
  8
0
  6
CONTINUOUS
 62
     7
100
AcDbSpline
210
0.0
220
0.0
230
1.0
 70
     8
 71
     3
 72
    71
 73
    67
 74
     0
 42
0.00000001
 43
0.00000001
 40
0.0
 40
0.0
 40
0.0
 40
0.0
 40
0.0047737223969659
 40
0.0095360354201637
 40
0.0142871197110818
 40
0.0190271571949793
 40
0.0237563310719865
 40
0.0284748258076019
 40
0.0331828271225929
 40
0.0378805219822813
 40
0.0425680985852169
 40
0.0472457463512312
 40
0.0519136559088665
 40
0.0565720190821804
 40
0.0612210288769187
 40
0.0658608794660561
 40
0.0704917661747031
 40
0.0751138854643784
 40
0.0797274349166452
 40
0.0843326132161136
 40
0.0889296201328085
 40
0.0935186565039045
 40
0.1090548929080673
 40
0.1260297059927965
 40
0.144448721369321
 40
0.1643163378882573
 40
0.1802547071649132
 40
0.1990273584927783
 40
0.21075322024168
 40
0.2224790777183447
 40
0.2342049394672468
 40
0.2414173724348846
 40
0.2498912482776142
 40
0.2596266380246209
 40
0.2706235882608026
 40
0.2828821311885244
 40
0.2964022899955554
 40
0.3134444670379987
 40
0.3282047772978364
 40
0.340683264878184
 40
0.3508800034903407
 40
0.378408942826243
 40
0.4032345555016936
 40
0.4576595807709562
 40
0.5178012538869659
 40
0.547411399538473
 40
0.5772165045980869
 40
0.6072210918404696
 40
0.6374295944418372
 40
0.6666895426396253
 40
0.6964263065200715
 40
0.7266435823972913
 40
0.7573448930307645
 40
0.7752423773097138
 40
0.7932656370625154
 40
0.8114153248147277
 40
0.8296920795505326
 40
0.848096527019198
 40
0.8666292800355493
 40
0.8852909387744561
 40
0.9040820910593449
 40
0.9230033126447625
 40
0.942055167493023
 40
0.96123820804498
 40
0.9805529754849726
 40
1.0
 40
1.0
 40
1.0
 40
1.0
 10
-355.1981847938292
 20
-277.1889401249951
 30
0.0
 10
-355.0956568692979
 20
-276.7011460536162
 30
0.0
 10
-354.8908460657814
 20
-275.7267237567997
 30
0.0
 10
-354.5708846409468
 20
-274.26892307089
 30
0.0
 10
-354.2420523140938
 20
-272.8161756113414
 30
0.0
 10
-353.9034138264855
 20
-271.368627330468
 30
0.0
 10
-353.5552188889856
 20
-269.9262392646298
 30
0.0
 10
-353.1974008150721
 20
-268.4890218246566
 30
0.0
 10
-352.8299774034595
 20
-267.0569722375548
 30
0.0
 10
-352.4529438924654
 20
-265.6300912511234
 30
0.0
 10
-352.0663015451217
 20
-264.2083786732326
 30
0.0
 10
-351.6700500162495
 20
-262.7918345628618
 30
0.0
 10
-351.2641893880489
 20
-261.3804589127756
 30
0.0
 10
-350.8487196373069
 20
-259.9742517314372
 30
0.0
 10
-350.4236407372885
 20
-258.5732130316747
 30
0.0
 10
-349.9889527809522
 20
-257.1773427944593
 30
0.0
 10
-349.5446553883252
 20
-255.7866411246197
 30
0.0
 10
-349.0907499477132
 20
-254.4011076657729
 30
0.0
 10
-348.6272312654757
 20
-253.0207437791492
 30
0.0
 10
-348.1541186459407
 20
-251.6455444341742
 30
0.0
 10
-347.6713402126733
 20
-250.2755283914485
 30
0.0
 10
-346.7875270483863
 20
-247.8245412501012
 30
0.0
 10
-345.3947002278822
 20
-244.1645529464305
 30
0.0
 10
-343.3686867164587
 20
-239.1740508818517
 30
0.0
 10
-341.0675190185871
 20
-233.7913370675351
 30
0.0
 10
-338.7229019727239
 20
-228.5380142068617
 30
0.0
 10
-336.2995896301359
 20
-223.2721160006568
 30
0.0
 10
-334.2064655307528
 20
-218.8026799191215
 30
0.0
 10
-332.2913425597669
 20
-214.7428941208501
 30
0.0
 10
-330.69454370032
 20
-211.3610960667504
 30
0.0
 10
-329.296312144351
 20
-208.4154378137452
 30
0.0
 10
-328.0528108694551
 20
-205.7798787317527
 30
0.0
 10
-326.9112970700812
 20
-203.3315796698883
 30
0.0
 10
-325.6068580724779
 20
-200.516365268842
 30
0.0
 10
-324.1406222244123
 20
-197.3338343648366
 30
0.0
 10
-322.5119531385994
 20
-193.7842074089503
 30
0.0
 10
-320.622698137203
 20
-189.6486390772067
 30
0.0
 10
-318.622933838626
 20
-185.2714988725793
 30
0.0
 10
-316.6606433021587
 20
-180.9978748896868
 30
0.0
 10
-314.9941289368143
 20
-177.3875276058663
 30
0.0
 10
-312.7426502222547
 20
-172.5515041039406
 30
0.0
 10
-309.8855053525702
 20
-166.5442922252341
 30
0.0
 10
-304.8616482544912
 20
-156.3425851801808
 30
0.0
 10
-297.8772259140617
 20
-143.185772413642
 30
0.0
 10
-290.1909214191598
 20
-129.7701539863817
 30
0.0
 10
-283.5876256478305
 20
-118.7476717916308
 30
0.0
 10
-278.5293253567775
 20
-110.5580908108677
 30
0.0
 10
-273.3214816687643
 20
-102.3681378360275
 30
0.0
 10
-268.032315279918
 20
-94.28236770663362
 30
0.0
 10
-262.6492552410122
 20
-86.27540734886733
 30
0.0
 10
-257.1609329935756
 20
-78.32116962987202
 30
0.0
 10
-251.4819466048714
 20
-70.29188447879282
 30
0.0
 10
-246.4595331314667
 20
-63.35686140053625
 30
0.0
 10
-242.1589447168722
 20
-57.52517190990142
 30
0.0
 10
-238.6353388798111
 20
-52.81068198969788
 30
0.0
 10
-235.0543825617583
 20
-48.0815397722478
 30
0.0
 10
-231.4160065311134
 20
-43.33778072466515
 30
0.0
 10
-227.7202293064648
 20
-38.57939528935977
 30
0.0
 10
-223.9670466981131
 20
-33.80638542541953
 30
0.0
 10
-220.1564566878227
 20
-29.01875253089881
 30
0.0
 10
-216.288471657004
 20
-24.21648852533476
 30
0.0
 10
-212.3630435616105
 20
-19.39962422321301
 30
0.0
 10
-208.3803538622738
 20
-14.56804293147676
 30
0.0
 10
-204.3397181617699
 20
-9.722184410176055
 30
0.0
 10
-200.2437170157678
 20
-4.860390182916813
 30
0.0
 10
-197.4791102303292
 20
-1.623811181394097
 30
0.0
 10
-196.0920903527852
 20
0.0000000000000555
 30
0.0
  0
SPLINE
  5
7C
330
1F
100
AcDbEntity
  8
0
  6
CONTINUOUS
 62
     7
100
AcDbSpline
210
0.0
220
0.0
230
1.0
 70
    24
 71
     3
 72
    20
 73
    16
 74
     0
 42
0.00000001
 43
0.00000001
 40
0.0
 40
0.0
 40
0.0
 40
0.0
 40
0.1249999999999997
 40
0.1249999999999997
 40
0.2499999999999993
 40
0.2499999999999993
 40
0.3749999999999993
 40
0.3749999999999993
 40
0.4999999999999993
 40
0.4999999999999993
 40
0.6249999999999993
 40
0.6249999999999993
 40
0.7499999999999993
 40
0.7499999999999993
 40
1.0
 40
1.0
 40
1.0
 40
1.0
 10
-168.5293253505901
 20
-334.556936026815
 30
0.0
 10
-179.8019395368823
 20
-334.5569360268151
 30
0.0
 10
-191.0690558212796
 20
-334.5569360268152
 30
0.0
 10
-213.1518986812762
 20
-334.5569360268146
 30
0.0
 10
-223.969002986487
 20
-334.556936026814
 30
0.0
 10
-244.7279402432998
 20
-334.5569360268141
 30
0.0
 10
-254.6688438632764
 20
-334.5569360268142
 30
0.0
 10
-273.4008290789951
 20
-334.5569360268141
 30
0.0
 10
-282.1929351953909
 20
-334.556936026814
 30
0.0
 10
-298.5263020189727
 20
-334.5569360268141
 30
0.0
 10
-306.0665236675882
 20
-334.5569360268151
 30
0.0
 10
-319.928598262588
 20
-334.5569360268151
 30
0.0
 10
-326.2506838547723
 20
-334.5569360268145
 30
0.0
 10
-343.5409455239255
 20
-334.5569360268129
 30
0.0
 10
-352.8378361142182
 20
-334.5569360268151
 30
0.0
 10
-360.399681544658
 20
-334.556936026815
 30
0.0
  0
SPLINE
  5
7D
330
1F
100
AcDbEntity
  8
0
  6
CONTINUOUS
 62
     7
100
AcDbSpline
210
0.0
220
0.0
230
1.0
 70
    24
 71
     3
 72
    57
 73
    53
 74
     0
 42
0.00000001
 43
0.00000001
 40
0.0
 40
0.0
 40
0.0
 40
0.0
 40
0.1249999999999999
 40
0.1249999999999999
 40
0.1875000000000002
 40
0.1875000000000002
 40
0.2500000000000006
 40
0.2500000000000006
 40
0.3125000000000009
 40
0.3125000000000009
 40
0.3750000000000013
 40
0.3750000000000013
 40
0.4375000000000017
 40
0.4375000000000017
 40
0.5000000000000021
 40
0.5000000000000021
 40
0.5625000000000024
 40
0.5625000000000024
 40
0.5937500000000027
 40
0.5937500000000027
 40
0.6250000000000029
 40
0.6562500000000031
 40
0.6562500000000031
 40
0.6875000000000032
 40
0.6875000000000032
 40
0.7187500000000034
 40
0.7187500000000034
 40
0.7500000000000037
 40
0.7500000000000037
 40
0.7812500000000039
 40
0.7812500000000039
 40
0.812500000000004
 40
0.812500000000004
 40
0.8437500000000042
 40
0.8437500000000042
 40
0.8750000000000044
 40
0.8750000000000044
 40
0.8906250000000039
 40
0.8906250000000039
 40
0.9062500000000033
 40
0.9062500000000033
 40
0.9218750000000028
 40
0.9218750000000028
 40
0.9375000000000021
 40
0.9375000000000021
 40
0.9531250000000016
 40
0.9531250000000016
 40
0.968750000000001
 40
0.968750000000001
 40
0.9843750000000004
 40
0.9843750000000004
 40
1.0
 40
1.0
 40
1.0
 40
1.0
 10
-168.5293253505197
 20
-334.556936026814
 30
0.0
 10
-160.0725741521155
 20
-334.5569360268141
 30
0.0
 10
-151.6124201636102
 20
-334.556936026814
 30
0.0
 10
-139.0495449177751
 20
-334.556936026814
 30
0.0
 10
-134.8826438180819
 20
-334.556936026814
 30
0.0
 10
-126.6052427584561
 20
-334.556936026814
 30
0.0
 10
-122.4951203924199
 20
-334.556936026814
 30
0.0
 10
-114.3441201458195
 20
-334.5569360268141
 30
0.0
 10
-110.3023019435031
 20
-334.556936026814
 30
0.0
 10
-102.3015228624602
 20
-334.5569360268141
 30
0.0
 10
-98.34254835337467
 20
-334.556936026814
 30
0.0
 10
-90.52774779064723
 20
-334.556936026814
 30
0.0
 10
-86.67279986527329
 20
-334.556936026814
 30
0.0
 10
-79.07924968793188
 20
-334.556936026814
 30
0.0
 10
-75.34135868955632
 20
-334.5569360268138
 30
0.0
 10
-67.97313610988775
 20
-334.5569360268161
 30
0.0
 10
-64.34244804268172
 20
-334.556936026815
 30
0.0
 10
-58.97554510864597
 20
-334.556936026815
 30
0.0
 10
-57.2002369494391
 20
-334.556936026815
 30
0.0
 10
-53.68202500862206
 20
-334.556936026815
 30
0.0
 10
-50.19630220372115
 20
-334.556936026815
 30
0.0
 10
-46.79090817726428
 20
-334.556936026815
 30
0.0
 10
-43.43335379333516
 20
-334.556936026815
 30
0.0
 10
-41.77918574852458
 20
-334.556936026815
 30
0.0
 10
-38.52087033027843
 20
-334.5569360268152
 30
0.0
 10
-36.91676608321804
 20
-334.5569360268151
 30
0.0
 10
-33.75430373513485
 20
-334.5569360268151
 30
0.0
 10
-32.19515982494634
 20
-334.556936026815
 30
0.0
 10
-29.108807141786
 20
-334.5569360268152
 30
0.0
 10
-27.58127972731823
 20
-334.5569360268151
 30
0.0
 10
-24.5500126943495
 20
-334.556936026815
 30
0.0
 10
-23.04590117192464
 20
-334.556936026815
 30
0.0
 10
-20.06967413307028
 20
-334.5569360268152
 30
0.0
 10
-18.59741843283451
 20
-334.5569360268152
 30
0.0
 10
-15.72002062040707
 20
-334.5569360268151
 30
0.0
 10
-14.31616059191001
 20
-334.5569360268152
 30
0.0
 10
-12.29880725389231
 20
-334.5569360268151
 30
0.0
 10
-11.64109625797349
 20
-334.5569360268152
 30
0.0
 10
-10.36010581739819
 20
-334.5569360268152
 30
0.0
 10
-9.737042008153352
 20
-334.5569360268151
 30
0.0
 10
-8.528576154643465
 20
-334.5569360268152
 30
0.0
 10
-7.943229391770645
 20
-334.556936026815
 30
0.0
 10
-6.811203797189094
 20
-334.5569360268149
 30
0.0
 10
-6.264196545315762
 20
-334.5569360268151
 30
0.0
 10
-5.205799642473456
 20
-334.556936026815
 30
0.0
 10
-4.694411299577559
 20
-334.5569360268151
 30
0.0
 10
-3.700630187605408
 20
-334.5569360268142
 30
0.0
 10
-3.218439855992091
 20
-334.5569360268143
 30
0.0
 10
-2.274812112709615
 20
-334.5569360268148
 30
0.0
 10
-1.813323680244673
 20
-334.5569360268141
 30
0.0
 10
-0.9012874674185494
 20
-334.556936026814
 30
0.0
 10
-0.4506388205352465
 20
-334.5569360268139
 30
0.0
 10
-0.0000000000000192
 20
-334.556936026814
 30
0.0
  0
MTEXT
  5
7F
330
1F
100
AcDbEntity
  8
0
  6
CONTINUOUS
 62
     7
100
AcDbMText
 10
-360.3996815447
 20
-344.9663768409
 30
0.0
 40
4.83362
 41
0.0
 71
     1
 72
     1
  1
SOLIDWORKS pi (pIgp)
  7
SLDTEXTSTYLE0
  0
ENDSEC
  0
SECTION
  2
OBJECTS
  0
DICTIONARY
  5
C
330
0
100
AcDbDictionary
  3
ACAD_GROUP
350
D
  3
ACAD_MLINESTYLE
350
17
  3
ACAD_SCALELIST
350
47
  3
DWGPROPS
350
80
  0
DICTIONARY
  5
D
102
{ACAD_REACTORS
330
C
102
}
330
C
100
AcDbDictionary
  0
DICTIONARY
  5
17
102
{ACAD_REACTORS
330
C
102
}
330
C
100
AcDbDictionary
  3
STANDARD
350
18
  0
DICTIONARY
  5
47
102
{ACAD_REACTORS
330
C
102
}
330
C
100
AcDbDictionary
  0
XRECORD
  5
80
102
{ACAD_REACTORS
330
C
102
}
330
C
100
AcDbXrecord
  1
DWGPROPS COOKIE
  2

  3

  4

  6

  7

  8
maoya
  9

300
=
301
=
302
=
303
=
304
=
305
=
306
=
307
=
308
=
309
=
 40
0.0
 41
2460254.633033819
 42
2460254.633132176
  1

 90
        0
  0
MLINESTYLE
  5
18
102
{ACAD_REACTORS
330
17
102
}
330
17
100
AcDbMlineStyle
  2
Standard
 70
     0
  3

 62
   256
 51
90.0
 52
90.0
 71
     2
 49
0.5
 62
   256
  6
BYLAYER
 49
-0.5
 62
   256
  6
BYLAYER
  0
ENDSEC
  0
EOF
